<svg xmlns="http://www.w3.org/2000/svg" version="1.1" xmlns:xlink="http://www.w3.org/1999/xlink" xmlns:svgjs="http://svgjs.dev/svgjs" width="1500" height="348" viewBox="0 0 1500 348"><g transform="matrix(1,0,0,1,-0.9084522071641459,0.5155847517073937)"><svg viewBox="0 0 396 92" data-background-color="#ffffff" preserveAspectRatio="xMidYMid meet" height="348" width="1500" xmlns="http://www.w3.org/2000/svg" xmlns:xlink="http://www.w3.org/1999/xlink"><g id="tight-bounds" transform="matrix(1,0,0,1,0.24008861730862918,-0.13621185262718427)"><svg viewBox="0 0 395.52 92.2725158674464" height="92.2725158674464" width="395.52"><g><svg viewBox="0 0 395.52 92.2725158674464" height="92.2725158674464" width="395.52"><g><svg viewBox="0 0 395.52 92.2725158674464" height="92.2725158674464" width="395.52"><g id="textblocktransform"><svg viewBox="0 0 395.52 92.2725158674464" height="92.2725158674464" width="395.52" id="textblock"><g><svg viewBox="0 0 395.52 92.2725158674464" height="92.2725158674464" width="395.52"><path d="M394.594 19.791C392.735 10.213 387.435 7.55 387.435 7.55 371.165-2.315 350.86-0.189 332.619 1.229 300.414 1.286 268.339 3.393 236.208 4.524 168.767 4.696 100.749 1.861 33.643 8.853 27.339 10.998-6.54 9.274 1.121 21.017 3.129 25.901 10.456 31.322 10.232 35.805 11.236 36.59 12.631 34.79 13.226 35.92 15.309 38.966 18.711 37.529 21.501 39.33 17.614 44.138 20.403 48.141 23.062 52.336 18.377 53.428 12.371 52.911 9.675 56.531 9.396 59.156 7.89 58.658 6.235 58.543 5.026 58.466 2.59 58.753 2.999 59.577 4.394 62.393-1.594 64.021 2.162 66.78-0.422 69.768 3.948 72.354 3.353 75.591 3.278 76.243 3.687 76.798 4.338 76.951 7.22 77.775 3.018 79.384 3.464 81.127 33.029 93.042 65.104 84.805 95.394 90.284 103.259 86.453 97.346 91.644 100.489 90.839 102.943 89.901 104.728 93.789 107.499 91.586 107.927 90.954 107.276 89.46 108.8 89.747 109.6 89.901 110.307 89.862 110.418 88.981 110.586 87.659 109.117 88.483 108.726 87.793 112.947 84.307 111.906 92.602 115.866 92.257 115.68 91.241 114.528 89.786 116.889 89.977 119.232 88.521 119.306 87.315 121.389 90.59 121.463 91.299 121.835 91.797 122.43 92.142 128.938 88.579 135.409 93.406 142.233 91.797 146.417 90.035 150.433 92.755 154.672 92.084 156.16 91.548 157.666 90.59 159.098 92.199 176.632 92.544 195.319 91.107 211.943 92.257 256.364 90.111 303.836 93.138 350.674 90.303 361.719 89.211 373.192 87.659 383.958 86.414 383.958 86.414 392.679 83.005 392.679 67.68S394.538 54.271 394.817 42.069C395.096 29.867 396.398 29.369 394.538 19.791Z" opacity="1" fill="#883d1a" data-fill-palette-color="tertiary"></path><g transform="matrix(1,0,0,1,55.76832,26.230666666666668)"><svg width="283.98335999999995" viewBox="5.35 -42.3 307.78 43.15" height="39.81118253411306" data-palette-color="#ffffff"><path d="M18.6-37.9Q31-37.9 31-26.6L31-26.6Q31-21.1 27.9-18.23 24.8-15.35 18.6-15.35L18.6-15.35 10.2-15.35 10.2 0 5.35 0 5.35-37.9 18.6-37.9ZM26.05-26.6Q26.05-30.3 24.2-31.98 22.35-33.65 18.6-33.65L18.6-33.65 10.2-33.65 10.2-19.65 18.6-19.65Q26-19.65 26.05-26.6L26.05-26.6ZM49.1 0.85Q41.85 0.85 36.15-1.85L36.15-1.85 36.15-6.45Q41.9-3.4 49.1-3.4L49.1-3.4Q53.25-3.4 55.17-5.15 57.1-6.9 57.1-9.75L57.1-9.75Q57.1-12.45 55.32-13.8 53.55-15.15 50.1-16.15L50.1-16.15 46.7-17.1Q43.8-17.95 41.75-19.05 39.7-20.15 38.32-22.23 36.95-24.3 36.95-27.65L36.95-27.65Q36.95-33 40.07-35.8 43.2-38.6 48.95-38.6L48.95-38.6Q52.3-38.6 54.85-37.98 57.4-37.35 60.15-36.1L60.15-36.1 60.15-31.6Q55.05-34.35 48.95-34.35L48.95-34.35Q45.25-34.35 43.55-32.63 41.85-30.9 41.85-27.9L41.85-27.9Q41.9-25.15 43.52-23.85 45.15-22.55 48.6-21.55L48.6-21.55 52.05-20.6Q55.1-19.75 57.22-18.63 59.35-17.5 60.67-15.38 62-13.25 62-9.85L62-9.85Q61.95-4.9 58.52-2.02 55.1 0.85 49.1 0.85L49.1 0.85ZM95.45 0L91.35-11.05 75.55-11.05 71.5 0 66.5 0 80.75-38.35 86.15-38.35 100.45 0 95.45 0ZM77.2-15.4L89.7-15.4 83.45-32.3 77.2-15.4ZM121.34 0.85Q114.09 0.85 110.49-2.83 106.89-6.5 106.89-13.25L106.89-13.25 106.89-37.9 111.79-37.9 111.79-13.25Q111.79-8.4 114.19-5.9 116.59-3.4 121.34-3.4L121.34-3.4Q126.09-3.4 128.49-5.9 130.89-8.4 130.89-13.25L130.89-13.25 130.89-37.9 135.79-37.9 135.79-13.25Q135.79-6.5 132.19-2.83 128.59 0.85 121.34 0.85L121.34 0.85ZM152.49 0.65Q148.74 0.65 147.09-0.85 145.44-2.35 145.44-5.9L145.44-5.9 145.44-42.3 150.14-42.3 150.14-7.15Q150.14-5.15 150.76-4.42 151.39-3.7 153.14-3.7L153.14-3.7Q154.54-3.7 155.64-4L155.64-4 155.64 0.3Q153.64 0.65 152.49 0.65L152.49 0.65ZM193.94-27.65L198.84-27.65 190.34 0.45 185.29 0.45 178.44-20.75 171.64 0.45 166.59 0.45 158.04-27.65 162.94-27.65 169.14-5.7 175.74-27.65 181.14-27.65 187.79-5.7 193.94-27.65ZM212.98-27.65Q217.38-27.65 219.69-26.18 221.98-24.7 222.73-22.23 223.48-19.75 223.48-16L223.48-16 223.48 0 218.78 0 218.78-2.75Q216.88-0.95 214.98-0.15 213.08 0.65 210.88 0.65L210.88 0.65Q208.28 0.65 206.18-0.48 204.08-1.6 202.86-3.73 201.63-5.85 201.63-8.75L201.63-8.75Q201.63-13.25 204.43-15.73 207.23-18.2 211.98-18.2L211.98-18.2Q215.73-18.2 218.73-16.55L218.73-16.55Q218.68-19 218.23-20.45 217.78-21.9 216.38-22.68 214.98-23.45 212.23-23.45L212.23-23.45 208.53-23.45 208.53-27.65 212.98-27.65ZM211.53-3.4Q213.23-3.4 215.11-4.2 216.98-5 218.78-6.6L218.78-6.6 218.78-12.9Q215.98-14.3 212.68-14.3L212.68-14.3Q210.03-14.3 208.23-13.03 206.43-11.75 206.43-8.75L206.43-8.75Q206.43-5.95 207.96-4.67 209.48-3.4 211.53-3.4L211.53-3.4ZM244.38-28.25Q249.48-28.25 251.96-25.55 254.43-22.85 254.43-16.65L254.43-16.65 254.43 0 249.73 0 249.73-16.65Q249.73-20.55 248.41-22.2 247.08-23.85 243.73-23.85L243.73-23.85Q239.83-23.85 235.93-20.45L235.93-20.45 235.93 0 231.23 0 231.23-27.65 235.93-27.65 235.93-24.7Q240.03-28.25 244.38-28.25L244.38-28.25ZM271.68-27.65Q276.08-27.65 278.38-26.18 280.68-24.7 281.43-22.23 282.18-19.75 282.18-16L282.18-16 282.18 0 277.48 0 277.48-2.75Q275.58-0.95 273.68-0.15 271.78 0.65 269.58 0.65L269.58 0.65Q266.98 0.65 264.88-0.48 262.78-1.6 261.56-3.73 260.33-5.85 260.33-8.75L260.33-8.75Q260.33-13.25 263.13-15.73 265.93-18.2 270.68-18.2L270.68-18.2Q274.43-18.2 277.43-16.55L277.43-16.55Q277.38-19 276.93-20.45 276.48-21.9 275.08-22.68 273.68-23.45 270.93-23.45L270.93-23.45 267.23-23.45 267.23-27.65 271.68-27.65ZM270.23-3.4Q271.93-3.4 273.81-4.2 275.68-5 277.48-6.6L277.48-6.6 277.48-12.9Q274.68-14.3 271.38-14.3L271.38-14.3Q268.73-14.3 266.93-13.03 265.13-11.75 265.13-8.75L265.13-8.75Q265.13-5.95 266.66-4.67 268.18-3.4 270.23-3.4L270.23-3.4ZM303.08-28.25Q308.18-28.25 310.65-25.55 313.13-22.85 313.13-16.65L313.13-16.65 313.13 0 308.43 0 308.43-16.65Q308.43-20.55 307.1-22.2 305.78-23.85 302.43-23.85L302.43-23.85Q298.53-23.85 294.63-20.45L294.63-20.45 294.63 0 289.93 0 289.93-27.65 294.63-27.65 294.63-24.7Q298.73-28.25 303.08-28.25L303.08-28.25Z" opacity="1" transform="matrix(1,0,0,1,0,0)" fill="#ffffff" class="wordmark-text-0" data-fill-palette-color="quaternary" id="text-0"></path></svg></g></svg></g></svg></g></svg></g><g></g></svg></g><defs></defs></svg><rect width="395.52" height="92.2725158674464" fill="none" stroke="none" visibility="hidden"></rect></g></svg></g></svg>